<?xml version="1.0" encoding="UTF-8"?>
<svg fill="#221f1f" version="1.1" viewBox="0 0 603 182" xmlns="http://www.w3.org/2000/svg" xmlns:xlink="http://www.w3.org/1999/xlink">
<path d="m374.01 142.18c-34.999 25.797-85.729 39.561-129.41 39.561-61.243 0-116.38-22.651-158.09-60.325-3.2771-2.9625-0.34083-6.9999 3.5917-4.6928 45.014 26.191 100.67 41.947 158.17 41.947 38.775 0 81.43-8.0224 120.65-24.67 5.925-2.5168 10.88 3.8801 5.0861 8.1796" fill="#f90"/>
<path d="m388.56 125.54c-4.4569-5.7153-29.573-2.7003-40.846-1.3633-3.4344 0.41947-3.9587-2.5692-0.86517-4.719 20.003-14.078 52.827-10.015 56.655-5.2958 3.8276 4.7453-0.99624 37.647-19.794 53.351-2.8838 2.412-5.6366 1.1273-4.352-2.0711 4.2209-10.539 13.685-34.161 9.2021-39.902" fill="#f90"/>
<path d="m348.5 20.066v-13.685c0-2.0711 1.573-3.4606 3.4606-3.4606h61.269c1.9663 0 3.5393 1.4157 3.5393 3.4606v11.719c-0.0262 1.9663-1.6779 4.5355-4.6142 8.5991l-31.749 45.329c11.798-0.28837 24.251 1.4681 34.947 7.498 2.412 1.3633 3.0674 3.3558 3.2509 5.322v14.603c0 1.9925-2.2022 4.3258-4.5093 3.1198-18.85-9.8838-43.887-10.959-64.729 0.10487-2.1236 1.1535-4.352-1.1535-4.352-3.146v-13.869c0-2.2284 0.0262-6.0299 2.2546-9.4119l36.782-52.748h-32.011c-1.9663 0-3.5393-1.3895-3.5393-3.4344"/>
<path d="m125 105.45h-18.64c-1.7827-0.13107-3.1984-1.4681-3.3295-3.1722v-95.665c0-1.9138 1.5992-3.4344 3.5917-3.4344h17.382c1.809 0.0786 3.2509 1.4681 3.382 3.1984v12.505h0.34082c4.5355-12.086 13.056-17.723 24.539-17.723 11.666 0 18.955 5.6366 24.198 17.723 4.5093-12.086 14.76-17.723 25.745-17.723 7.8126 0 16.359 3.2247 21.576 10.461 5.8988 8.0486 4.6928 19.741 4.6928 29.992l-0.0262 60.377c0 1.9138-1.5992 3.4606-3.5917 3.4606h-18.614c-1.8614-0.13107-3.3557-1.6254-3.3557-3.4606v-50.703c0-4.0374 0.36702-14.105-0.52434-17.932-1.3895-6.4231-5.558-8.2321-10.959-8.2321-4.5093 0-9.2283 3.0149-11.142 7.8388-1.9138 4.8239-1.7303 12.899-1.7303 18.326v50.703c0 1.9138-1.5992 3.4606-3.5917 3.4606h-18.614c-1.8876-0.13107-3.3558-1.6254-3.3558-3.4606l-0.02622-50.703c0-10.67 1.7565-26.374-11.483-26.374-13.397 0-12.872 15.311-12.872 26.374v50.703c0 1.9138-1.5992 3.4606-3.5917 3.4606"/>
<path d="m469.51 1.1636c27.659 0 42.629 23.752 42.629 53.954 0 29.179-16.543 52.329-42.629 52.329-27.161 0-41.947-23.752-41.947-53.351 0-29.782 14.97-52.932 41.947-52.932m0.15729 19.532c-13.738 0-14.603 18.719-14.603 30.385 0 11.693-0.18352 36.651 14.445 36.651 14.445 0 15.127-20.135 15.127-32.404 0-8.0748-0.34082-17.723-2.779-25.378-2.0974-6.6591-6.2658-9.2545-12.191-9.2545"/>
<path d="m548.01 105.45h-18.562c-1.8614-0.13107-3.3558-1.6254-3.3558-3.4606l-0.0262-95.691c0.1573-1.7565 1.7041-3.1198 3.5917-3.1198h17.277c1.6254 0.0786 2.9625 1.1798 3.3295 2.6741v14.629h0.3408c5.2172-13.082 12.532-19.322 25.404-19.322 8.3632 0 16.517 3.0149 21.76 11.273 4.8763 7.6553 4.8763 20.528 4.8763 29.782v60.22c-0.20973 1.6779-1.7565 3.0149-3.5917 3.0149h-18.693c-1.7041-0.13107-3.1198-1.3895-3.3033-3.0149v-51.962c0-10.461 1.206-25.771-11.667-25.771-4.5355 0-8.704 3.0412-10.775 7.6553-2.6217 5.8464-2.9625 11.667-2.9625 18.116v51.516c-0.0262 1.9138-1.6517 3.4606-3.6441 3.4606"/>
<use transform="translate(244.37)" xlink:href="#a"/>
<path id="a" d="m55.288 59.758v-4.0374c-13.475 0-27.711 2.8838-27.711 18.771 0 8.0486 4.1685 13.502 11.326 13.502 5.2434 0 9.9362-3.2247 12.899-8.468 3.6703-6.4494 3.4868-12.505 3.4868-19.768m18.797 45.434c-1.2322 1.1011-3.015 1.1798-4.4044 0.4457-6.1872-5.1385-7.2883-7.5242-10.696-12.427-10.225 10.434-17.46 13.554-30.726 13.554-15.678 0-27.895-9.674-27.895-29.048 0-15.127 8.2059-25.43 19.872-30.464 10.12-4.4569 24.251-5.2434 35.052-6.4756v-2.412c0-4.4307 0.34082-9.674-2.2546-13.502-2.2809-3.4344-6.6329-4.8501-10.461-4.8501-7.1048 0-13.449 3.6441-14.996 11.195-0.31461 1.6779-1.5468 3.3296-3.2247 3.4082l-18.09-1.9401c-1.5206-0.3408-3.1985-1.573-2.779-3.9063 4.1685-21.917 23.962-28.524 41.685-28.524 9.071 0 20.921 2.412 28.078 9.2808 9.071 8.468 8.2059 19.768 8.2059 32.063v29.048c0 8.7302 3.6179 12.558 7.0261 17.277 1.206 1.6779 1.4681 3.6966-0.05244 4.955-3.8014 3.1722-10.565 9.071-14.288 12.374l-0.05242-0.0525"/>
</svg>
